<mxfile host="app.diagrams.net" modified="2024-01-11T21:24:24.194Z" agent="Mozilla/5.0 (Windows NT 10.0; Win64; x64) AppleWebKit/537.36 (KHTML, like Gecko) Chrome/118.0.0.0 YaBrowser/23.11.0.0 Safari/537.36" version="22.1.18" etag="CS4KwT2GEg3HsLUXQ6hK" type="github">
  <diagram name="Страница — 1" id="dnZRT0L_g7SXbc_uQPGa">
    <mxGraphModel>
      <root>
        <mxCell id="0" />
        <mxCell id="1" parent="0" />
      </root>
    </mxGraphModel>
  </diagram>
</mxfile>
